<svg width="159" height="159" viewBox="0 0 159 159" fill="none" xmlns="http://www.w3.org/2000/svg">
<path d="M64.5938 124.219L79.5 121.734L94.4062 124.219C94.4062 127.369 95.0268 130.489 96.2324 133.4C97.4381 136.31 99.2052 138.955 101.433 141.183L101.859 141.609L79.5 144.094L57.1406 141.609L57.567 141.183C59.7948 138.955 61.5619 136.31 62.7676 133.4C63.9732 130.489 64.5938 127.369 64.5938 124.219Z" fill="#CDCDCD"/>
<path d="M146.578 124.219H12.4219C11.1041 124.219 9.84026 123.695 8.90844 122.763C7.97662 121.832 7.45313 120.568 7.45312 119.25V109.312H151.547V119.25C151.547 120.568 151.023 121.832 150.092 122.763C149.16 123.695 147.896 124.219 146.578 124.219Z" fill="#EAEAE8"/>
<path d="M7.45312 111.797V24.8438C7.45312 23.526 7.97662 22.2621 8.90844 21.3303C9.84026 20.3985 11.1041 19.875 12.4219 19.875H146.578C147.896 19.875 149.16 20.3985 150.092 21.3303C151.023 22.2621 151.547 23.526 151.547 24.8438V111.797H7.45312Z" fill="#41DFD0"/>
<path d="M134.156 74.5312H84.4688V54.6562H134.156C134.815 54.6562 135.447 54.918 135.913 55.3839C136.379 55.8498 136.641 56.4817 136.641 57.1406V72.0469C136.641 72.7058 136.379 73.3377 135.913 73.8036C135.447 74.2695 134.815 74.5312 134.156 74.5312Z" fill="#FBB540"/>
<path d="M104.344 62.1094H109.312V67.0781H104.344V62.1094Z" fill="#D18D28"/>
<path d="M94.4062 62.1094H99.375V67.0781H94.4062V62.1094Z" fill="#D18D28"/>
<path d="M114.281 62.1094H119.25V67.0781H114.281V62.1094Z" fill="#D18D28"/>
<path d="M124.219 62.1094H129.188V67.0781H124.219V62.1094Z" fill="#D18D28"/>
<path d="M57.1406 141.609H101.859C103.177 141.609 104.441 142.133 105.373 143.065C106.305 143.997 106.828 145.26 106.828 146.578V151.547H52.1719V146.578C52.1719 145.26 52.6954 143.997 53.6272 143.065C54.559 142.133 55.8228 141.609 57.1406 141.609Z" fill="#EAEAE8"/>
<path d="M89.4375 81.9844H94.4062V86.9531H89.4375V81.9844Z" fill="#37C9C3"/>
<path d="M99.375 81.9844H104.344V86.9531H99.375V81.9844Z" fill="#37C9C3"/>
<path d="M109.312 81.9844H126.703V86.9531H109.312V81.9844Z" fill="#37C9C3"/>
<path d="M86.9531 64.5936C86.9559 68.8323 86.1237 73.03 84.5042 76.947C82.8846 80.8641 80.5094 84.4238 77.514 87.4228C74.5187 90.4219 70.962 92.8016 67.047 94.4261C63.132 96.0505 58.9353 96.8879 54.6966 96.8905H54.6563C53.0922 96.8912 51.5301 96.7781 49.9825 96.552C45.215 95.8574 40.6637 94.1033 36.6632 91.4186C35.0177 90.3138 33.4781 89.059 32.064 87.6703C30.8133 86.4503 29.6656 85.1291 28.6324 83.7202C25.275 79.152 23.1791 73.7806 22.5554 68.1458C21.9316 62.511 22.8019 56.8113 25.0789 51.6194C27.3559 46.4275 30.9593 41.9264 35.527 38.5684C40.0947 35.2104 45.4658 33.1138 51.1005 32.4893L79.5652 44.0354C84.351 49.8163 86.9645 57.0888 86.9531 64.5936Z" fill="#99D8AA"/>
<path d="M69.5625 47.2078C79.1671 47.2078 86.9531 39.4217 86.9531 29.8171C86.9531 20.2126 79.1671 12.4265 69.5625 12.4265C59.9579 12.4265 52.1719 20.2126 52.1719 29.8171C52.1719 39.4217 59.9579 47.2078 69.5625 47.2078Z" fill="#FBB540"/>
<path d="M74.5312 39.75H64.5938C63.9349 39.75 63.3029 39.4883 62.837 39.0223C62.3711 38.5564 62.1094 37.9245 62.1094 37.2656V29.8125H77.0156V37.2656C77.0156 37.9245 76.7539 38.5564 76.288 39.0223C75.8221 39.4883 75.1901 39.75 74.5312 39.75Z" fill="#428DC5"/>
<path d="M67.0781 29.8125H62.1094V24.8484C62.1094 22.8717 62.8946 20.976 64.2923 19.5782C65.6901 18.1805 67.5858 17.3953 69.5625 17.3953C71.5392 17.3953 73.4349 18.1805 74.8327 19.5782C76.2304 20.976 77.0156 22.8717 77.0156 24.8484H72.0469C72.0469 24.1895 71.7851 23.5576 71.3192 23.0917C70.8533 22.6258 70.2214 22.364 69.5625 22.364C68.9036 22.364 68.2717 22.6258 67.8058 23.0917C67.3399 23.5576 67.0781 24.1895 67.0781 24.8484V29.8125Z" fill="#EAEAE8"/>
<path d="M57.1406 67.0781C57.1449 73.9478 55.9088 80.7618 53.4917 87.1922L49.9825 96.5521C48.3287 96.3156 46.6963 95.948 45.1007 95.4528C45.1224 95.3752 45.1473 95.3006 45.1752 95.223L48.8397 85.447C51.0469 79.5745 52.1757 73.3517 52.1719 67.0781C52.1719 66.4192 52.4336 65.7873 52.8995 65.3214C53.3654 64.8555 53.9973 64.5938 54.6562 64.5938C55.3151 64.5938 55.947 64.8555 56.413 65.3214C56.8789 65.7873 57.1406 66.4192 57.1406 67.0781Z" fill="#6B9777"/>
<path d="M64.9198 82.6581C64.485 84.1922 63.9851 85.7201 63.4292 87.1952L59.9573 96.4557C58.2185 96.7441 56.4591 96.8895 54.6966 96.8905C54.6827 96.5604 54.7355 96.2308 54.8519 95.9216L58.7772 85.4468C59.2865 84.096 59.743 82.7078 60.1374 81.3103C60.3182 80.6786 60.742 80.1443 61.3159 79.8243C61.8899 79.5043 62.5672 79.4247 63.1997 79.6029C63.8322 79.7812 64.3683 80.2027 64.6906 80.7753C65.013 81.3479 65.0954 82.0249 64.9198 82.6581Z" fill="#6B9777"/>
<path d="M64.0879 77.0156C63.7328 77.016 63.3817 76.9404 63.0583 76.7937C62.735 76.647 62.4468 76.4327 62.2132 76.1652C61.9797 75.8977 61.8062 75.5833 61.7044 75.2431C61.6027 74.9029 61.575 74.5448 61.6234 74.193C61.9464 71.8351 62.1088 69.458 62.1094 67.0781C62.1088 66.0207 61.8836 64.9755 61.4484 64.0118C61.0133 63.0481 60.3783 62.1879 59.5856 61.4882C59.0914 61.0522 58.7907 60.4378 58.7495 59.7801C58.7084 59.1223 58.9302 58.4752 59.3662 57.981C59.8022 57.4869 60.4166 57.1861 61.0743 57.145C61.732 57.1038 62.3792 57.3257 62.8733 57.7616C64.1945 58.9278 65.2527 60.3615 65.9776 61.9677C66.7025 63.5739 67.0777 65.3158 67.0781 67.0781C67.0775 69.6841 66.8996 72.2871 66.5459 74.8691C66.4643 75.4633 66.1705 76.0079 65.7187 76.4025C65.2669 76.797 64.6877 77.0148 64.0879 77.0156Z" fill="#6B9777"/>
<path d="M45.0336 67.0781C44.6544 67.0779 44.2803 66.991 43.9399 66.8241C43.5994 66.6572 43.3016 66.4146 43.0693 66.1149C42.837 65.8153 42.6762 65.4665 42.5994 65.0951C42.5225 64.7238 42.5316 64.3399 42.626 63.9726C43.1795 61.8223 44.2997 59.8598 45.8697 58.2897C47.4398 56.7196 49.4023 55.5994 51.5526 55.0459C51.8699 54.9605 52.201 54.9388 52.5267 54.9822C52.8524 55.0256 53.1663 55.1331 53.4501 55.2987C53.734 55.4642 53.9822 55.6843 54.1803 55.9464C54.3785 56.2085 54.5227 56.5073 54.6046 56.8256C54.6865 57.1438 54.7045 57.4751 54.6575 57.8003C54.6105 58.1255 54.4994 58.4381 54.3308 58.7201C54.1621 59.0021 53.9392 59.2478 53.6749 59.4431C53.4106 59.6383 53.1102 59.7792 52.7911 59.8575C51.5016 60.1896 50.3247 60.8614 49.3831 61.803C48.4416 62.7446 47.7698 63.9215 47.4379 65.2111C47.3009 65.7448 46.9904 66.2179 46.5552 66.5559C46.1199 66.8939 45.5847 67.0776 45.0336 67.0781Z" fill="#6B9777"/>
<path d="M43.1402 81.9844C42.7586 81.9842 42.3822 81.8962 42.04 81.7272C41.6979 81.5582 41.3992 81.3127 41.1672 81.0098C40.9352 80.7068 40.776 80.3545 40.702 79.9801C40.6279 79.6058 40.6411 79.2194 40.7403 78.8509L41.2195 77.0783C41.3372 76.6436 41.4257 76.2476 41.49 75.8709C41.7179 74.5356 41.8959 73.172 42.0179 71.8211C42.0461 71.4951 42.1384 71.1779 42.2895 70.8877C42.4407 70.5975 42.6476 70.34 42.8985 70.13C43.1494 69.92 43.4393 69.7617 43.7516 69.664C44.0639 69.5664 44.3924 69.5314 44.7182 69.561C45.0441 69.5907 45.3608 69.6844 45.6504 69.8368C45.9399 69.9892 46.1964 70.1973 46.4053 70.4492C46.6142 70.701 46.7713 70.9916 46.8675 71.3043C46.9638 71.617 46.9973 71.9457 46.9662 72.2714C46.8317 73.7505 46.6367 75.2427 46.387 76.7066C46.2963 77.2398 46.1746 77.7851 46.0144 78.3746L45.5352 80.1478C45.393 80.6744 45.0814 81.1395 44.6486 81.4714C44.2157 81.8033 43.6857 81.9836 43.1402 81.9844Z" fill="#6B9777"/>
<path d="M43.7157 86.3134C43.7156 86.6395 43.6512 86.9624 43.5263 87.2637L41.1444 93.6175C41.1114 93.7072 41.072 93.7944 41.0264 93.8783C39.5092 93.1752 38.0502 92.3528 36.6632 91.4188L38.9022 85.447C38.9115 85.419 38.924 85.388 38.9364 85.36C39.1566 84.829 39.5541 84.3908 40.0612 84.12C40.5683 83.8492 41.1536 83.7627 41.7173 83.8752C42.2811 83.9876 42.7884 84.2921 43.1528 84.7367C43.5172 85.1813 43.7161 85.7385 43.7157 86.3134Z" fill="#6B9777"/>
<path d="M76.8169 74.789C76.4793 78.0202 75.7889 81.2047 74.758 84.2855L72.2829 91.661C70.546 92.7954 68.703 93.7585 66.78 94.5367C66.5179 93.9676 66.4835 93.3198 66.6837 92.7262L70.047 82.708C70.9618 79.9716 71.5741 77.1432 71.873 74.2735C71.9413 73.6179 72.2673 73.0163 72.7793 72.6011C73.2912 72.1858 73.9471 71.9909 74.6027 72.0593C75.2583 72.1277 75.8599 72.4537 76.2751 72.9656C76.6904 73.4775 76.8852 74.1334 76.8169 74.789Z" fill="#6B9777"/>
<path d="M74.5313 69.5627C73.8724 69.5627 73.2404 69.3009 72.7745 68.835C72.3086 68.3691 72.0469 67.7372 72.0469 67.0783C72.0488 62.8423 70.5026 58.7516 67.6992 55.576C67.4833 55.3313 67.3177 55.0464 67.2119 54.7378C67.1061 54.4291 67.0621 54.1026 67.0824 53.7769C67.1236 53.1191 67.4243 52.5047 67.9185 52.0686C68.4126 51.6326 69.0598 51.4107 69.7175 51.4519C70.3753 51.493 70.9898 51.7937 71.4258 52.2879C75.0304 56.3714 77.0183 61.6315 77.0156 67.0783C77.0156 67.7372 76.7539 68.3691 76.288 68.835C75.8221 69.3009 75.1902 69.5627 74.5313 69.5627Z" fill="#6B9777"/>
<path d="M41.5108 54.6563C41.006 54.6568 40.5129 54.5035 40.0974 54.2168C39.6818 53.9301 39.3635 53.5236 39.1847 53.0515C39.006 52.5793 38.9753 52.0639 39.0968 51.5739C39.2184 51.0839 39.4863 50.6425 39.8649 50.3086C43.9488 46.704 49.2092 44.7161 54.6563 44.7188C55.3152 44.7188 55.9471 44.9805 56.413 45.4464C56.8789 45.9123 57.1406 46.5442 57.1406 47.2031C57.1406 47.862 56.8789 48.4939 56.413 48.9598C55.9471 49.4258 55.3152 49.6875 54.6563 49.6875C50.4203 49.6857 46.3296 51.2319 43.1539 54.0352C42.7006 54.4362 42.116 54.6571 41.5108 54.6563Z" fill="#6B9777"/>
<path d="M39.4363 58.6562C38.0078 61.2331 37.2606 64.1319 37.2656 67.0783C37.2568 73.9829 35.6531 80.7922 32.5795 86.975C32.4507 87.2359 32.276 87.4715 32.064 87.6706C30.8133 86.4506 29.6656 85.1294 28.6324 83.7205C31.0392 78.502 32.2892 72.8249 32.2969 67.0783C32.2951 65.1584 32.5404 63.2463 33.0267 61.389C33.4972 59.5937 34.1921 57.8648 35.0949 56.2433C35.2482 55.9489 35.459 55.6883 35.7148 55.4767C35.9705 55.2652 36.2661 55.1071 36.5839 55.0116C36.9018 54.9162 37.2356 54.8854 37.5656 54.9212C37.8956 54.9569 38.215 55.0584 38.5051 55.2196C38.7952 55.3808 39.0501 55.5986 39.2546 55.8599C39.4592 56.1213 39.6093 56.421 39.6961 56.7414C39.7829 57.0617 39.8047 57.3962 39.76 57.7251C39.7154 58.054 39.6054 58.3706 39.4363 58.6562Z" fill="#6B9777"/>
</svg>
