<svg width="55" height="55" viewBox="0 0 55 55" fill="none" xmlns="http://www.w3.org/2000/svg">
<path d="M23.8699 28.3626C23.7523 28.2497 23.659 28.1154 23.5953 27.9674C23.5316 27.8195 23.4988 27.6608 23.4988 27.5005C23.4988 27.3402 23.5316 27.1815 23.5953 27.0335C23.659 26.8855 23.7523 26.7513 23.8699 26.6384L29.6289 21.0773C29.7465 20.9644 29.8398 20.8301 29.9035 20.6821C29.9672 20.5342 30 20.3755 30 20.2152C30 20.0549 29.9672 19.8962 29.9035 19.7482C29.8398 19.6003 29.7465 19.466 29.6289 19.3531C29.3938 19.1269 29.0758 19 28.7443 19C28.4129 19 28.0949 19.1269 27.8598 19.3531L22.1008 24.9263C21.3959 25.6093 21 26.5352 21 27.5005C21 28.4658 21.3959 29.3916 22.1008 30.0746L27.8598 35.6479C28.0935 35.8722 28.4089 35.9986 28.738 36C28.9032 36.0009 29.0669 35.9703 29.2197 35.9099C29.3726 35.8494 29.5116 35.7604 29.6289 35.6479C29.7465 35.535 29.8398 35.4007 29.9035 35.2527C29.9672 35.1048 30 34.9461 30 34.7858C30 34.6255 29.9672 34.4668 29.9035 34.3188C29.8398 34.1708 29.7465 34.0365 29.6289 33.9237L23.8699 28.3626Z" fill="url(#paint0_linear_1285_4)"/>
<defs>
<linearGradient id="paint0_linear_1285_4" x1="25.1344" y1="21.1636" x2="27.609" y2="21.5213" gradientUnits="userSpaceOnUse">
<stop stop-color="#EC6A91"/>
<stop offset="1" stop-color="#EC7F8E"/>
</linearGradient>
</defs>
</svg>
