<svg width="163" height="119" viewBox="0 0 163 119" fill="none" xmlns="http://www.w3.org/2000/svg">
<path d="M146.303 0.175293H16.6973C7.49038 0.175293 0 7.666 0 16.8726V77.5273H31.2941C33.965 77.5273 36.1303 79.6926 36.1303 82.3635V118.825H146.303C155.51 118.825 163 111.334 163 102.127V16.8726C163 7.666 155.509 0.175293 146.303 0.175293ZM107.963 46.0423C106.082 44.1458 106.094 41.0838 107.991 39.2029C109.887 37.3219 112.949 37.3338 114.83 39.2306C125.811 50.3001 125.689 68.2871 114.56 79.3267C113.617 80.262 112.385 80.7295 111.154 80.7295C109.91 80.7295 108.666 80.2526 107.721 79.2989C105.84 77.4025 105.852 74.3405 107.748 72.4595C115.091 65.1761 115.188 53.3254 107.963 46.0423ZM119.068 84.2767C133.013 70.4447 133.187 47.9297 119.457 34.0874C117.576 32.1909 117.588 29.129 119.484 27.248C121.381 25.367 124.443 25.3796 126.324 27.2757C143.81 44.9048 143.611 73.5557 125.88 91.1439C124.936 92.0792 123.705 92.5467 122.474 92.5467C121.23 92.5467 119.986 92.0699 119.04 91.1161C117.159 89.2197 117.171 86.1577 119.068 84.2767ZM94.3981 53.9663C92.5171 52.0699 92.5294 49.0079 94.4258 47.1269C96.322 45.2459 99.3843 45.2588 101.265 47.1546C107.945 53.8896 107.875 64.8282 101.11 71.54C100.166 72.4753 98.9348 72.9428 97.7039 72.9428C96.4596 72.9428 95.2158 72.466 94.2704 71.5122C92.3895 69.6158 92.4017 66.5538 94.2982 64.6728C97.2773 61.7172 97.3224 56.9145 94.3981 53.9663ZM20.3355 30.5495C20.3355 27.8786 22.5008 25.7133 25.1717 25.7133H69.9564C72.6273 25.7133 74.7926 27.8786 74.7926 30.5495C74.7926 33.2204 72.6273 35.3858 69.9564 35.3858H25.1717C22.5008 35.3858 20.3355 33.2207 20.3355 30.5495ZM27.0114 54.2188C24.3405 54.2188 22.1752 52.0534 22.1752 49.3825C22.1752 46.7116 24.3405 44.5463 27.0114 44.5463H47.5639C50.2348 44.5463 52.4001 46.7116 52.4001 49.3825C52.4001 52.0534 50.2348 54.2188 47.5639 54.2188H27.0114Z" fill="#3478F6"/>
<path d="M26.4578 87.1997H0V102.127C0 111.334 7.49038 118.825 16.6973 118.825H26.4575V87.1997H26.4578Z" fill="#3478F6"/>
</svg>
