<svg width="165" height="165" viewBox="0 0 165 165" fill="none" xmlns="http://www.w3.org/2000/svg">
<g clip-path="url(#clip0)">
<path d="M152.199 0.00195312H76.1C69.0306 0.00195312 63.2983 5.73424 63.2983 12.8036V75.0338H11.3805C5.09708 75.0338 0.00131226 80.1296 0.00131226 86.413V153.622C0.00131226 159.905 5.09708 165.001 11.3805 165.001H152.199C159.268 165.001 165 159.269 165 152.199V12.8036C165 5.73424 159.268 0.00195312 152.199 0.00195312ZM145.798 78.5898C145.798 83.3015 141.975 87.1242 137.263 87.1242H124.241C124.241 79.3312 118.574 75.0338 112.862 75.0338H82.5008V48.3637C82.5008 43.652 86.3235 39.8293 91.0352 39.8293H137.263C141.975 39.8293 145.798 43.652 145.798 48.3637V78.5898Z" fill="#AAAAAA"/>
<path d="M124.241 153.621C124.241 159.904 119.145 165 112.861 165H11.3799C5.09647 165 0.000701904 159.904 0.000701904 153.621V86.412C0.000701904 80.1285 5.09647 75.0327 11.3799 75.0327H112.861C119.145 75.0327 124.241 80.1285 124.241 86.412V153.621Z" fill="#FE4F60"/>
<path d="M99.4446 75.0327C93.4068 122.65 54.6836 156.097 0.000701904 150.406V86.412C0.000701904 80.1285 5.09647 75.0327 11.3799 75.0327H99.4446Z" fill="#FF6D7A"/>
<path d="M73.5269 132.418C71.3051 130.195 71.3048 126.593 73.5269 124.371C75.8252 122.073 75.8252 118.334 73.5269 116.035C71.3048 113.813 71.3048 110.211 73.5269 107.989C75.7487 105.767 79.3513 105.767 81.5731 107.989C88.3079 114.724 88.3079 125.683 81.5731 132.418C79.3517 134.639 75.7491 134.64 73.5269 132.418Z" fill="#F2F2F2"/>
<path d="M145.797 48.3626V78.5886C145.797 83.3004 141.974 87.1231 137.263 87.1231H124.241C124.241 79.3301 118.574 75.0326 112.861 75.0326H82.5002V48.3626C82.5002 43.6508 86.3229 39.8281 91.0346 39.8281H137.263C141.974 39.8281 145.797 43.6508 145.797 48.3626Z" fill="#75F6FC"/>
<path d="M137.298 50.4962H101.127C96.4131 50.4962 92.5921 54.3171 92.5921 59.0306V75.0326H82.5002V48.3626C82.5002 43.6491 86.3211 39.8281 91.0346 39.8281H137.263C144.619 39.8281 144.237 50.4962 137.298 50.4962Z" fill="#BBFBFF"/>
<path d="M42.7013 101.586V112.044C42.7013 115.186 40.1541 117.733 37.0117 117.733H26.5534C23.411 117.733 20.8638 115.186 20.8638 112.044V101.586C20.8638 98.4432 23.411 95.896 26.5534 95.896H37.0117C40.1538 95.896 42.7013 98.4435 42.7013 101.586Z" fill="#FFEC8F"/>
<path d="M83.1022 147.345C81.1208 144.906 81.491 141.323 83.9293 139.341C96.0624 129.478 96.0383 110.842 83.7665 100.996C81.3146 99.0307 80.921 95.4498 82.8867 92.9983C84.8525 90.5468 88.4341 90.1528 90.8845 92.1189C108.828 106.503 108.832 133.77 91.1057 148.172C88.6695 150.152 85.0858 149.785 83.1022 147.345Z" fill="#F2F2F2"/>
<path d="M94.5195 95.4657C93.1433 99.2564 91.4258 103.204 89.2815 107.19C87.7997 104.827 85.9584 102.758 83.7661 100.995C81.316 99.0288 80.9213 95.4479 82.8878 92.9978C84.8542 90.5477 88.4352 90.153 90.8852 92.1195C92.2422 93.2055 93.5206 94.4028 94.5195 95.4657Z" fill="white"/>
<path d="M85.3734 113.73C81.4985 119.596 76.8906 124.92 71.9424 129.369C71.6401 127.609 72.17 125.731 73.5284 124.373C75.8256 122.072 75.8256 118.335 73.5284 116.034C71.3059 113.815 71.3059 110.209 73.5284 107.99C75.7473 105.768 79.3531 105.768 81.5721 107.99C83.2647 109.683 84.5307 111.639 85.3734 113.73Z" fill="white"/>
<path d="M139.752 25.6043H88.5454C85.4029 25.6043 82.8558 23.0568 82.8558 19.9147C82.8558 16.7726 85.4029 14.2251 88.5454 14.2251H139.752C142.894 14.2251 145.442 16.7726 145.442 19.9147C145.442 23.0568 142.894 25.6043 139.752 25.6043Z" fill="#808080"/>
<path d="M152.38 11.3466C142.236 11.3157 122.806 11.3804 84.6366 11.3804C77.5666 11.3804 71.8322 17.112 71.8322 24.182V75.033H63.2977V12.8028C63.2977 5.73273 69.0293 0.00115268 76.0994 0.00115268C76.5919 0.00115268 152.324 -0.00560374 152.764 0.0135987C160.09 0.332573 159.712 11.369 152.38 11.3466Z" fill="#B2B2B2"/>
</g>
<defs>
<clipPath id="clip0">
<rect width="165" height="165" fill="white"/>
</clipPath>
</defs>
</svg>
