<svg width="442" height="641" viewBox="0 0 442 641" fill="none" xmlns="http://www.w3.org/2000/svg">
<rect y="435.5" width="442" height="181" fill="#EDF6E5"/>
<path d="M294.846 519.961C188.405 483.286 57.9583 490.015 0 497.643V156.5H442V553.02C431.347 557.56 390.793 553.02 294.846 519.961Z" fill="#FFBCBC"/>
<path d="M178.427 412.779C122.03 483.962 40.1325 494.341 0 498.5V0H442V352.558C424.212 334.328 390.531 326.341 351.664 330.5C312.797 334.659 224.851 354.185 178.427 412.779Z" fill="#F38BA0"/>
<g clip-path="url(#clip0)" filter="url(#filter0_d)">
<path d="M378.607 453.554C378.254 451.486 376.293 450.1 374.229 450.449L364.829 452.054C362.763 452.406 361.373 454.366 361.726 456.431C362.04 458.282 363.647 459.588 365.46 459.588C365.674 459.588 365.887 459.571 366.104 459.534L375.504 457.931C377.57 457.579 378.96 455.619 378.607 453.554Z" fill="#FFAE8B"/>
<path d="M374.17 471.283L365.12 466.367C363.277 465.367 360.973 466.049 359.973 467.89C358.973 469.731 359.655 472.035 361.496 473.037L370.548 477.951C371.123 478.265 371.743 478.413 372.356 478.413C373.703 478.413 375.005 477.696 375.693 476.428C376.695 474.587 376.013 472.283 374.17 471.283Z" fill="#FFAE8B"/>
<path d="M235.85 459.534C236.065 459.571 236.281 459.588 236.492 459.588C238.308 459.588 239.914 458.282 240.228 456.431C240.581 454.366 239.191 452.406 237.125 452.054L227.727 450.449C225.661 450.098 223.7 451.486 223.347 453.554C222.995 455.619 224.384 457.579 226.45 457.931L235.85 459.534Z" fill="#FFAE8B"/>
<path d="M236.835 466.367L227.785 471.283C225.942 472.283 225.262 474.587 226.262 476.43C226.948 477.696 228.252 478.413 229.599 478.413C230.211 478.413 230.831 478.265 231.407 477.953L240.459 473.037C242.3 472.035 242.982 469.733 241.982 467.89C240.98 466.049 238.678 465.367 236.835 466.367Z" fill="#FFAE8B"/>
<path d="M386.287 461.508C386.95 474.618 403.763 494.977 401.807 520.951C400.059 544.188 389.107 572.409 366.685 586.685C366.775 587.968 366.823 589.158 366.823 590.237C366.823 604.378 359.389 612.676 344.29 617.119C344.303 617.115 424.488 599.655 424.508 514.065C424.527 426.759 385.413 444.279 386.287 461.508Z" fill="#FFDCA7"/>
<path d="M379.068 576.291C375.412 580.234 371.288 583.751 366.684 586.683C366.775 587.966 366.823 589.156 366.823 590.235C366.823 604.378 359.389 612.676 344.29 617.119C344.29 617.119 360.428 613.604 378.225 602.004C379.733 598.628 380.483 594.727 380.483 590.235C380.483 586.641 379.958 581.843 379.068 576.291Z" fill="#FFCF86"/>
<path d="M319.932 404.909C319.932 404.909 330.546 377.711 339.64 379.593C348.863 381.5 347.072 412.182 347.072 412.182C347.072 412.182 366.121 441.42 365.505 458.239C364.889 475.056 354.078 486.274 343.379 488.321C343.379 488.321 366.823 566.149 366.823 590.237C366.823 614.323 345.266 621.462 300.978 621.462C256.688 621.462 235.131 614.323 235.131 590.237C235.131 566.149 258.576 488.321 258.576 488.321C247.879 486.274 237.065 475.056 236.449 458.239C235.833 441.42 254.882 412.182 254.882 412.182C254.882 412.182 253.091 381.5 262.314 379.593C271.406 377.711 282.022 404.909 282.022 404.909H319.932Z" fill="#FFE9C8"/>
<path d="M300.978 607.802C260.657 607.802 239.181 601.882 235.655 582.648C235.319 585.536 235.131 588.102 235.131 590.237C235.131 614.323 256.686 621.462 300.976 621.462C345.266 621.462 366.823 614.321 366.823 590.237C366.823 588.102 366.635 585.536 366.3 582.648C362.773 601.882 341.297 607.802 300.978 607.802Z" fill="#FFDCA7"/>
<path d="M262.314 379.593C253.092 381.5 254.882 412.182 254.882 412.182C254.882 412.182 235.833 441.42 236.449 458.239C236.775 467.132 239.953 474.457 244.456 479.691C298.015 467.713 293.3 404.909 293.3 404.909H282.022C282.022 404.909 271.406 377.711 262.314 379.593Z" fill="#FFAE8B"/>
<path d="M339.641 379.593C348.861 381.5 347.073 412.182 347.073 412.182C347.073 412.182 366.122 441.42 365.506 458.239C365.18 467.132 362.002 474.457 357.498 479.691C303.94 467.713 308.652 404.909 308.652 404.909H319.933C319.933 404.909 330.546 377.711 339.641 379.593Z" fill="#FFAE8B"/>
<path d="M269.137 434.716C264.818 434.716 261.434 438.917 261.434 444.281C261.434 449.645 264.818 453.846 269.137 453.846C273.455 453.846 276.838 449.645 276.838 444.281C276.838 438.917 273.455 434.716 269.137 434.716Z" fill="#433F43"/>
<path d="M332.817 434.716C328.5 434.716 325.116 438.917 325.116 444.281C325.116 449.645 328.5 453.846 332.817 453.846C337.137 453.846 340.52 449.645 340.52 444.281C340.52 438.917 337.137 434.716 332.817 434.716Z" fill="#433F43"/>
<path d="M312.634 452.961C312.634 451.639 312.125 448.444 307.412 447.327C305.863 446.961 303.939 446.804 300.978 446.804C298.013 446.804 296.091 446.961 294.544 447.327C289.829 448.444 289.32 451.639 289.32 452.961C289.32 456.569 292.752 459.924 297.184 461.195V469.702C297.184 471.797 298.881 473.496 300.978 473.496C303.073 473.496 304.772 471.797 304.772 469.702V461.195C309.202 459.924 312.634 456.569 312.634 452.961Z" fill="#DD8858"/>
<path d="M261.016 531.557C261.016 531.557 264.715 629.706 278.84 629.706C292.965 629.706 293.3 541.223 293.3 541.223" fill="#FFE9C8"/>
<path d="M340.939 531.557C340.939 531.557 337.239 629.706 323.114 629.706C308.989 629.706 308.652 541.223 308.652 541.223" fill="#FFE9C8"/>
<path d="M278.84 633.5C271.92 633.5 268.565 623.774 266.418 615.302C264.31 606.992 262.44 595.466 260.858 581.044C258.184 556.654 257.233 531.946 257.223 531.698C257.144 529.605 258.777 527.844 260.872 527.764C262.965 527.673 264.728 529.319 264.808 531.413C264.816 531.642 265.697 554.517 268.145 577.814C269.573 591.412 271.245 602.473 273.115 610.69C275.817 622.563 278.202 625.266 278.886 625.82C279.915 625.057 284.888 619.522 287.758 583.021C289.409 562.022 289.506 541.415 289.506 541.207C289.514 539.116 291.211 537.428 293.3 537.428H293.316C295.411 537.436 297.102 539.142 297.095 541.236C297.095 541.459 296.99 563.764 295.149 585.78C294.058 598.818 292.575 609.248 290.744 616.776C288.998 623.956 285.865 633.5 278.84 633.5Z" fill="#FFDCA7"/>
<path d="M323.115 633.5C316.09 633.5 312.956 623.956 311.208 616.778C309.377 609.248 307.897 598.82 306.805 585.78C304.965 563.764 304.86 541.459 304.858 541.237C304.85 539.142 306.542 537.436 308.639 537.429H308.652C310.741 537.429 312.439 539.117 312.447 541.209C312.449 541.415 312.545 562.059 314.198 583.058C317.068 619.526 322.039 625.057 323.068 625.823C323.752 625.266 326.138 622.565 328.839 610.69C330.709 602.475 332.381 591.414 333.81 577.814C336.257 554.517 337.139 531.642 337.147 531.414C337.226 529.319 339.003 527.677 341.082 527.765C343.175 527.844 344.809 529.606 344.731 531.7C344.722 531.946 343.77 556.654 341.096 581.046C339.515 595.466 337.645 606.992 335.536 615.304C333.389 623.774 330.035 633.5 323.115 633.5Z" fill="#FFDCA7"/>
</g>
<defs>
<filter id="filter0_d" x="189" y="371" width="261" height="270" filterUnits="userSpaceOnUse" color-interpolation-filters="sRGB">
<feFlood flood-opacity="0" result="BackgroundImageFix"/>
<feColorMatrix in="SourceAlpha" type="matrix" values="0 0 0 0 0 0 0 0 0 0 0 0 0 0 0 0 0 0 127 0"/>
<feOffset/>
<feGaussianBlur stdDeviation="4"/>
<feColorMatrix type="matrix" values="0 0 0 0 0 0 0 0 0 0 0 0 0 0 0 0 0 0 0.15 0"/>
<feBlend mode="normal" in2="BackgroundImageFix" result="effect1_dropShadow"/>
<feBlend mode="normal" in="SourceGraphic" in2="effect1_dropShadow" result="shape"/>
</filter>
<clipPath id="clip0">
<rect width="245" height="254" fill="white" transform="translate(197 379)"/>
</clipPath>
</defs>
</svg>
