<svg width="442" height="619" viewBox="0 0 442 619" fill="none" xmlns="http://www.w3.org/2000/svg">
<rect y="413.5" width="442" height="181" fill="#EDF6E5"/>
<path d="M294.846 497.961C188.405 461.286 57.9583 468.015 0 475.643V134.5H442V531.02C431.347 535.56 390.793 531.02 294.846 497.961Z" fill="#FFBCBC"/>
<path d="M178.427 390.779C122.03 461.962 40.1325 472.341 0 476.5V0H442V330.558C424.212 312.328 390.531 304.341 351.664 308.5C312.797 312.659 224.851 332.185 178.427 390.779Z" fill="#F38BA0"/>
<g clip-path="url(#clip0)" filter="url(#filter0_d)">
<path d="M378.607 431.554C378.254 429.486 376.293 428.1 374.229 428.449L364.829 430.054C362.763 430.406 361.373 432.366 361.726 434.431C362.04 436.282 363.647 437.588 365.46 437.588C365.674 437.588 365.887 437.571 366.104 437.534L375.504 435.931C377.57 435.579 378.96 433.619 378.607 431.554V431.554Z" fill="#FFAE8B"/>
<path d="M374.17 449.283L365.12 444.367C363.277 443.367 360.973 444.049 359.973 445.89C358.973 447.731 359.655 450.035 361.496 451.037L370.548 455.951C371.123 456.265 371.743 456.413 372.356 456.413C373.703 456.413 375.005 455.696 375.693 454.428C376.695 452.587 376.013 450.283 374.17 449.283Z" fill="#FFAE8B"/>
<path d="M235.85 437.534C236.065 437.571 236.281 437.588 236.492 437.588C238.308 437.588 239.914 436.282 240.228 434.431C240.581 432.366 239.191 430.406 237.125 430.054L227.727 428.449C225.661 428.098 223.7 429.486 223.347 431.554C222.995 433.619 224.384 435.579 226.45 435.931L235.85 437.534Z" fill="#FFAE8B"/>
<path d="M236.835 444.367L227.785 449.283C225.942 450.283 225.262 452.587 226.262 454.43C226.948 455.696 228.252 456.413 229.599 456.413C230.211 456.413 230.831 456.265 231.407 455.953L240.459 451.037C242.3 450.035 242.982 447.733 241.982 445.89C240.98 444.049 238.678 443.367 236.835 444.367Z" fill="#FFAE8B"/>
<path d="M386.287 439.508C386.95 452.618 403.763 472.977 401.807 498.951C400.059 522.188 389.107 550.409 366.685 564.685C366.775 565.968 366.823 567.158 366.823 568.237C366.823 582.378 359.389 590.676 344.29 595.119C344.303 595.115 424.488 577.655 424.508 492.065C424.527 404.759 385.413 422.279 386.287 439.508V439.508Z" fill="#FFDCA7"/>
<path d="M379.068 554.291C375.412 558.234 371.288 561.751 366.684 564.683C366.775 565.966 366.823 567.156 366.823 568.235C366.823 582.378 359.389 590.676 344.29 595.119C344.29 595.119 360.428 591.604 378.225 580.004C379.733 576.628 380.483 572.727 380.483 568.235C380.483 564.641 379.958 559.843 379.068 554.291V554.291Z" fill="#FFCF86"/>
<path d="M319.932 382.909C319.932 382.909 330.546 355.711 339.64 357.593C348.863 359.5 347.072 390.182 347.072 390.182C347.072 390.182 366.121 419.42 365.505 436.239C364.889 453.056 354.078 464.274 343.379 466.321C343.379 466.321 366.823 544.149 366.823 568.237C366.823 592.323 345.266 599.462 300.978 599.462C256.688 599.462 235.131 592.323 235.131 568.237C235.131 544.149 258.576 466.321 258.576 466.321C247.879 464.274 237.065 453.056 236.449 436.239C235.833 419.42 254.882 390.182 254.882 390.182C254.882 390.182 253.091 359.5 262.314 357.593C271.406 355.711 282.022 382.909 282.022 382.909H319.932Z" fill="#FFE9C8"/>
<path d="M300.978 585.802C260.657 585.802 239.181 579.882 235.655 560.648C235.319 563.536 235.131 566.102 235.131 568.237C235.131 592.323 256.686 599.462 300.976 599.462C345.266 599.462 366.823 592.321 366.823 568.237C366.823 566.102 366.635 563.536 366.3 560.648C362.773 579.882 341.297 585.802 300.978 585.802V585.802Z" fill="#FFDCA7"/>
<path d="M262.314 357.593C253.092 359.5 254.882 390.182 254.882 390.182C254.882 390.182 235.833 419.42 236.449 436.239C236.775 445.132 239.953 452.457 244.456 457.691C298.015 445.713 293.3 382.909 293.3 382.909H282.022C282.022 382.909 271.406 355.711 262.314 357.593Z" fill="#FFAE8B"/>
<path d="M339.641 357.593C348.861 359.5 347.073 390.182 347.073 390.182C347.073 390.182 366.122 419.42 365.506 436.239C365.18 445.132 362.002 452.457 357.498 457.691C303.94 445.713 308.652 382.909 308.652 382.909H319.933C319.933 382.909 330.546 355.711 339.641 357.593Z" fill="#FFAE8B"/>
<path d="M269.137 412.716C264.818 412.716 261.434 416.917 261.434 422.281C261.434 427.645 264.818 431.846 269.137 431.846C273.455 431.846 276.838 427.645 276.838 422.281C276.838 416.917 273.455 412.716 269.137 412.716Z" fill="#433F43"/>
<path d="M332.817 412.716C328.5 412.716 325.116 416.917 325.116 422.281C325.116 427.645 328.5 431.846 332.817 431.846C337.137 431.846 340.52 427.645 340.52 422.281C340.52 416.917 337.137 412.716 332.817 412.716Z" fill="#433F43"/>
<path d="M312.634 430.961C312.634 429.639 312.125 426.444 307.412 425.327C305.863 424.961 303.939 424.804 300.978 424.804C298.013 424.804 296.091 424.961 294.544 425.327C289.829 426.444 289.32 429.639 289.32 430.961C289.32 434.569 292.752 437.924 297.184 439.195V447.702C297.184 449.797 298.881 451.496 300.978 451.496C303.073 451.496 304.772 449.797 304.772 447.702V439.195C309.202 437.924 312.634 434.569 312.634 430.961Z" fill="#DD8858"/>
<path d="M261.016 509.557C261.016 509.557 264.715 607.706 278.84 607.706C292.965 607.706 293.3 519.223 293.3 519.223" fill="#FFE9C8"/>
<path d="M340.939 509.557C340.939 509.557 337.239 607.706 323.114 607.706C308.989 607.706 308.652 519.223 308.652 519.223" fill="#FFE9C8"/>
<path d="M278.84 611.5C271.92 611.5 268.565 601.774 266.418 593.302C264.31 584.992 262.44 573.466 260.858 559.044C258.184 534.654 257.233 509.946 257.223 509.698C257.144 507.605 258.777 505.844 260.872 505.764C262.965 505.673 264.728 507.319 264.808 509.413C264.816 509.642 265.697 532.517 268.145 555.814C269.573 569.412 271.245 580.473 273.115 588.69C275.817 600.563 278.202 603.266 278.886 603.82C279.915 603.057 284.888 597.522 287.758 561.021C289.409 540.022 289.506 519.415 289.506 519.207C289.514 517.116 291.211 515.428 293.3 515.428H293.316C295.411 515.436 297.102 517.142 297.095 519.236C297.095 519.459 296.99 541.764 295.149 563.78C294.058 576.818 292.575 587.248 290.744 594.776C288.998 601.956 285.865 611.5 278.84 611.5Z" fill="#FFDCA7"/>
<path d="M323.115 611.5C316.09 611.5 312.956 601.956 311.208 594.778C309.377 587.248 307.897 576.82 306.805 563.78C304.965 541.764 304.86 519.459 304.858 519.237C304.85 517.142 306.542 515.436 308.639 515.429H308.652C310.741 515.429 312.439 517.117 312.447 519.209C312.449 519.415 312.545 540.059 314.198 561.058C317.068 597.526 322.039 603.057 323.068 603.823C323.752 603.266 326.138 600.565 328.839 588.69C330.709 580.475 332.381 569.414 333.81 555.814C336.257 532.517 337.139 509.642 337.147 509.414C337.226 507.319 339.003 505.677 341.082 505.765C343.175 505.844 344.809 507.606 344.731 509.7C344.722 509.946 343.77 534.654 341.096 559.046C339.515 573.466 337.645 584.992 335.536 593.304C333.389 601.774 330.035 611.5 323.115 611.5Z" fill="#FFDCA7"/>
</g>
<defs>
<filter id="filter0_d" x="189" y="349" width="261" height="270" filterUnits="userSpaceOnUse" color-interpolation-filters="sRGB">
<feFlood flood-opacity="0" result="BackgroundImageFix"/>
<feColorMatrix in="SourceAlpha" type="matrix" values="0 0 0 0 0 0 0 0 0 0 0 0 0 0 0 0 0 0 127 0"/>
<feOffset/>
<feGaussianBlur stdDeviation="4"/>
<feColorMatrix type="matrix" values="0 0 0 0 0 0 0 0 0 0 0 0 0 0 0 0 0 0 0.15 0"/>
<feBlend mode="normal" in2="BackgroundImageFix" result="effect1_dropShadow"/>
<feBlend mode="normal" in="SourceGraphic" in2="effect1_dropShadow" result="shape"/>
</filter>
<clipPath id="clip0">
<rect width="245" height="254" fill="white" transform="translate(197 357)"/>
</clipPath>
</defs>
</svg>
