<svg width="163" height="163" viewBox="0 0 163 163" fill="none" xmlns="http://www.w3.org/2000/svg">
<g clip-path="url(#clip0)">
<path d="M95.0828 88.2925C83.8495 88.2925 74.708 79.151 74.708 67.9177C74.708 56.6845 83.8495 47.543 95.0828 47.543H108.665V20.377C108.665 9.14374 99.5236 0.00219727 88.2904 0.00219727H15.2811C13.0464 0.00219727 10.9547 1.10152 9.68501 2.94202C8.42154 4.78251 8.13676 7.12666 8.93762 9.2109L58.1771 138.252C59.1757 140.887 61.7014 142.626 64.5206 142.626H88.2904C99.5236 142.626 108.665 133.484 108.665 122.251V88.2925H95.0828Z" fill="#2196F3"/>
<path d="M126.44 101.36C123.906 100.307 122.249 97.8282 122.249 95.0837V74.7089H95.0828C91.3334 74.7089 88.2904 71.6671 88.2904 67.9177C88.2904 64.1683 91.3334 61.1265 95.0828 61.1265H122.249V40.7517C122.249 38.0072 123.906 35.5287 126.44 34.4754C128.979 33.4233 131.9 34.0078 133.841 35.9503L161.009 63.1162C163.664 65.7713 163.664 70.0641 161.009 72.7192L133.841 99.8864C131.9 101.828 128.979 102.412 126.44 101.36Z" fill="#607D8B"/>
<path d="M58.7205 14.278L17.91 0.674465C8.70007 -2.15716 0 4.64148 0 13.5853V135.834C0 141.642 3.69467 146.824 9.19626 148.725L49.9993 162.328C51.5003 162.79 52.8794 163.001 54.3332 163.001C61.8245 163.001 67.9155 156.909 67.9155 149.418V27.1689C67.9155 21.3626 64.2209 16.1806 58.7205 14.278Z" fill="#64B5F6"/>
</g>
<defs>
<clipPath id="clip0">
<rect width="163" height="163" fill="white"/>
</clipPath>
</defs>
</svg>
