<svg width="186" height="186" viewBox="0 0 186 186" fill="none" xmlns="http://www.w3.org/2000/svg">
<path d="M93 183.275C142.858 183.275 183.275 142.858 183.275 93C183.275 43.1423 142.858 2.72461 93 2.72461C43.1423 2.72461 2.72461 43.1423 2.72461 93C2.72461 142.858 43.1423 183.275 93 183.275Z" fill="#2ED1E2"/>
<path d="M93 2.72461C91.1698 2.72461 89.3541 2.78564 87.5508 2.89317C134.87 5.71114 172.377 44.9724 172.377 93C172.377 141.028 134.87 180.289 87.5508 183.107C89.3541 183.214 91.1698 183.275 93 183.275C142.858 183.275 183.275 142.858 183.275 93C183.275 43.1422 142.858 2.72461 93 2.72461Z" fill="#02C7DD"/>
<path d="M158.761 27.2388C141.195 9.67382 117.841 0 93 0C68.1588 0 44.8046 9.67382 27.2388 27.2388C9.67382 44.8046 0 68.1588 0 93C0 117.841 9.67382 141.195 27.2388 158.761C44.8046 176.326 68.1588 186 93 186C117.841 186 141.195 176.326 158.761 158.761C176.326 141.195 186 117.841 186 93C186 68.1588 176.326 44.8046 158.761 27.2388ZM180.505 90.2754H156.163C155.735 68.1705 150.107 47.361 140.143 30.9748C143.831 29.902 147.437 28.6996 150.947 27.3736C152.298 28.5695 153.621 29.8054 154.907 31.0922C170.8 46.9846 179.825 67.9111 180.505 90.2754ZM110.787 28.5372C108.462 18.7322 105.736 11.4365 102.632 6.6742C113.557 9.46784 123.448 16.9278 131.383 27.653C124.895 29.1955 118.194 30.3431 111.366 31.0816C111.177 30.2217 110.985 29.3709 110.787 28.5372ZM105.485 29.7941C105.624 30.3834 105.761 30.9806 105.897 31.5833C101.63 31.9048 97.3241 32.069 93 32.069C88.6766 32.069 84.3728 31.8965 80.1053 31.5746C80.2401 30.9752 80.3763 30.3805 80.5151 29.7945C84.7757 11.8252 89.9038 5.44922 93 5.44922C96.0962 5.44922 101.224 11.8252 105.485 29.7941ZM74.3295 90.2754C74.4676 70.6211 76.0969 52.0746 78.989 36.961C83.6237 37.3297 88.3024 37.5182 93 37.5182C97.6983 37.5182 102.377 37.3301 107.011 36.9617C109.903 52.0749 111.532 70.6215 111.67 90.2754H74.3295ZM111.67 95.7246C111.532 115.379 109.903 133.926 107.011 149.039C102.376 148.67 97.6972 148.482 93 148.482C88.302 148.482 83.6237 148.67 78.989 149.039C76.0973 133.925 74.4676 115.378 74.3299 95.7246H111.67ZM75.213 28.5372C75.0154 29.3706 74.8232 30.2214 74.6343 31.0805C67.8075 30.3423 61.1104 29.1867 54.6233 27.6446C62.5563 16.9238 72.4455 9.46711 83.368 6.6742C80.2645 11.4365 77.5377 18.7319 75.213 28.5372ZM73.5416 36.4429C70.6466 51.8014 69.0176 70.5093 68.8803 90.2754H35.2881C35.7418 67.8835 41.7664 47.5815 51.3287 32.457C58.5075 34.2632 65.9501 35.5987 73.5416 36.4429ZM68.8803 95.7246C69.0176 115.491 70.6466 134.199 73.5416 149.557C65.9501 150.401 58.5072 151.736 51.3284 153.542C41.7664 138.418 35.7418 118.116 35.2881 95.7242H68.8803V95.7246ZM74.6343 154.92C74.8232 155.779 75.0154 156.629 75.213 157.463C77.538 167.268 80.2645 174.564 83.368 179.326C72.4459 176.533 62.5567 169.076 54.6233 158.355C61.1104 156.813 67.8075 155.658 74.6343 154.92ZM80.5151 156.206C80.376 155.62 80.2397 155.025 80.1053 154.425C84.3724 154.104 88.6762 153.931 93.0004 153.931C97.3234 153.931 101.628 154.104 105.895 154.426C105.76 155.025 105.624 155.62 105.485 156.206C101.224 174.175 96.0962 180.551 93 180.551C89.9038 180.551 84.7757 174.175 80.5151 156.206ZM110.787 157.463C110.985 156.629 111.177 155.779 111.366 154.919C118.192 155.658 124.89 156.813 131.377 158.355C123.443 169.076 113.554 176.533 102.632 179.326C105.736 174.564 108.462 167.268 110.787 157.463ZM112.458 149.558C115.353 134.199 116.982 115.491 117.12 95.7246H150.712C150.258 118.117 144.233 138.419 134.671 153.544C127.492 151.737 120.05 150.402 112.458 149.558ZM117.12 90.2754C116.982 70.5096 115.353 51.8021 112.459 36.444C120.051 35.6001 127.493 34.2647 134.672 32.4581C144.234 47.5826 150.258 67.8842 150.712 90.2754H117.12ZM146.066 23.3528C143.114 24.3903 140.098 25.34 137.024 26.1973C132.563 19.821 127.568 14.5323 122.187 10.4131C130.734 13.4269 138.778 17.7768 146.066 23.3528ZM48.979 26.1933C45.9049 25.3363 42.8879 24.3882 39.937 23.3506C47.2237 17.7754 55.2667 13.4261 63.8129 10.4127C58.4323 14.5312 53.4387 19.8188 48.979 26.1933ZM31.0922 31.0922C32.3789 29.8054 33.7023 28.5692 35.0534 27.3732C38.563 28.6989 42.1697 29.9006 45.8581 30.9734C35.8936 47.3599 30.2653 68.1697 29.8374 90.2754H5.49536C6.17469 67.9111 15.2001 46.9846 31.0922 31.0922ZM5.49536 95.7246H29.837C30.265 117.83 35.8933 138.64 45.8574 155.026C42.1693 156.099 38.563 157.301 35.053 158.626C33.7023 157.43 32.3785 156.194 31.0918 154.907C15.2001 139.015 6.17469 118.089 5.49536 95.7246ZM39.9384 162.65C42.8894 161.613 45.9046 160.663 48.9783 159.806C53.4383 166.181 58.432 171.468 63.8129 175.587C55.2671 172.574 47.2247 168.225 39.9384 162.65ZM137.02 159.808C140.095 160.665 143.114 161.61 146.065 162.648C138.778 168.224 130.734 172.574 122.187 175.587C127.567 171.469 132.561 166.182 137.02 159.808ZM154.908 154.908C153.621 156.195 152.298 157.431 150.947 158.627C147.437 157.301 143.83 156.1 140.142 155.027C150.106 138.64 155.735 117.83 156.163 95.7246H180.504C179.825 118.089 170.8 139.015 154.908 154.908Z" fill="#03BED7"/>
<path d="M167.628 165.069H119.001C110.359 165.069 103.354 158.064 103.354 149.422V100.795C103.354 92.1533 110.359 85.1475 119.001 85.1475H167.628C176.27 85.1475 183.276 92.153 183.276 100.795V149.422C183.275 158.064 176.27 165.069 167.628 165.069Z" fill="#EEF5F6"/>
<path d="M167.628 85.1475H156.729C165.371 85.1475 172.377 92.153 172.377 100.795V149.422C172.377 158.064 165.371 165.07 156.729 165.07H167.628C176.27 165.07 183.275 158.064 183.275 149.422V100.795C183.275 92.153 176.27 85.1475 167.628 85.1475Z" fill="#DEECF1"/>
<path d="M151.534 125.197C151.251 124.914 151.251 124.454 151.534 124.17L164.635 111.069C166.825 108.879 166.761 105.289 164.444 103.181C162.274 101.206 158.895 101.397 156.82 103.472L143.828 116.464C143.544 116.747 143.084 116.747 142.8 116.464L129.808 103.472C127.734 101.397 124.354 101.206 122.184 103.181C119.867 105.289 119.803 108.879 121.993 111.069L135.094 124.17C135.378 124.454 135.378 124.914 135.094 125.197L122.102 138.189C120.027 140.264 119.836 143.644 121.811 145.814C123.92 148.131 127.51 148.194 129.699 146.005L142.8 132.904C143.084 132.62 143.544 132.62 143.827 132.904L156.819 145.896C158.894 147.971 162.274 148.162 164.444 146.187C166.761 144.078 166.825 140.488 164.635 138.298L151.534 125.197Z" fill="#FE646F"/>
</svg>
