<svg id="Capa_1" enable-background="new 0 0 510 510" height="512" viewBox="0 0 510 510" width="512"
    xmlns="http://www.w3.org/2000/svg" xmlns:xlink="http://www.w3.org/1999/xlink">
    <linearGradient id="lg1">
        <stop offset="0" stop-color="#9ae1d3" />
        <stop offset="1" stop-color="#80d1c1" />
    </linearGradient>
    <linearGradient id="SVGID_1_" gradientUnits="userSpaceOnUse" x1="47.051" x2="475.08"
        xlink:href="#lg1" y1="-30.979" y2="397.05" />
    <linearGradient id="SVGID_2_" gradientUnits="userSpaceOnUse" x1="497.991" x2="-25.214"
        y1="428.45" y2="-94.755">
        <stop offset="0" stop-color="#0b799d" stop-opacity="0" />
        <stop offset=".1739" stop-color="#117d9e" stop-opacity=".174" />
        <stop offset=".414" stop-color="#2389a0" stop-opacity=".414" />
        <stop offset=".6928" stop-color="#409ca3" stop-opacity=".693" />
        <stop offset=".9986" stop-color="#69b7a8" stop-opacity=".999" />
        <stop offset="1" stop-color="#69b7a8" />
    </linearGradient>
    <linearGradient id="lg2">
        <stop offset="0" stop-color="#edf5ff" />
        <stop offset="1" stop-color="#b5dbff" />
    </linearGradient>
    <linearGradient id="SVGID_3_" gradientUnits="userSpaceOnUse" x1="118.764" x2="307.821"
        xlink:href="#lg2" y1="49.236" y2="238.293" />
    <linearGradient id="SVGID_4_" gradientUnits="userSpaceOnUse" x1="445.863" x2="163.831"
        y1="430.707" y2="148.675">
        <stop offset="0" stop-color="#07485e" stop-opacity="0" />
        <stop offset=".2708" stop-color="#074459" stop-opacity=".271" />
        <stop offset=".597" stop-color="#05394a" stop-opacity=".597" />
        <stop offset=".9505" stop-color="#032632" stop-opacity=".951" />
        <stop offset="1" stop-color="#03232e" />
    </linearGradient>
    <linearGradient id="SVGID_5_" gradientUnits="userSpaceOnUse" x1="181.57" x2="323.366"
        xlink:href="#lg2" y1="166.415" y2="308.21" />
    <linearGradient id="SVGID_6_" gradientUnits="userSpaceOnUse" x1="159.57" x2="336.818"
        y1="144.415" y2="321.663">
        <stop offset="0" stop-color="#edf5ff" />
        <stop offset="1" stop-color="#d5e8fe" />
    </linearGradient>
    <linearGradient id="SVGID_7_" gradientUnits="userSpaceOnUse" x1="160.558" x2="247.558"
        xlink:href="#lg1" y1="217.596" y2="316.596" />
    <linearGradient id="SVGID_8_" gradientUnits="userSpaceOnUse" x1="204.419" x2="291.419"
        xlink:href="#lg1" y1="179.052" y2="278.052" />
    <linearGradient id="SVGID_9_" gradientUnits="userSpaceOnUse" x1="265.016" x2="352.016"
        xlink:href="#lg1" y1="125.8" y2="224.8" />
    <linearGradient id="SVGID_10_" gradientUnits="userSpaceOnUse" x1="303.061" x2="390.061"
        xlink:href="#lg1" y1="92.367" y2="191.367" />
    <g>
        <g>
            <path
                d="m503.187 53.216v94.775c0 121.583-54.752 236.708-149.059 313.448l-29.113 23.68c-40.78 33.176-99.25 33.176-140.03 0l-29.113-23.68c-94.307-76.74-149.059-191.855-149.059-313.438v-94.774c0-9.764 3.952-18.614 10.354-25.016 6.401-6.39 15.241-10.354 25.005-10.354 31.272 0 62.066-5.388 91.112-15.708.041-.015.082-.029.124-.044 7.73-2.742 16.135-2.825 23.875-.115 27.229 9.532 61.057 15.177 97.717 15.177s70.489-5.646 97.719-15.178c7.743-2.711 16.152-2.632 23.881.118 29.078 10.347 59.917 15.75 91.228 15.75 19.527 0 35.359 15.82 35.359 35.359z"
                fill="url(#SVGID_1_)" />
            <path
                d="m255 486.081c-17.652 0-34.915-6.134-48.608-17.274l-31.155-25.342c-44.736-36.401-81.479-83.177-106.25-135.265-24.773-52.089-37.867-110.109-37.867-167.786v-50.449c0-25.241 18.414-46.899 43.4-50.479 16.433-2.355 32.672-5.942 48.628-10.747 9.419-2.836 19.447-3.038 28.899-.316 31.173 8.978 66.416 13.686 102.953 13.686s71.779-4.707 102.951-13.686c9.454-2.723 19.483-2.521 28.903.316 15.955 4.805 32.192 8.392 48.624 10.747 24.987 3.581 43.403 25.24 43.403 50.482v50.434c0 57.678-13.094 115.7-37.867 167.793-24.773 52.091-61.516 98.87-106.257 135.276l-31.146 25.334c-13.696 11.142-30.959 17.276-48.611 17.276z"
                fill="url(#SVGID_2_)" />
            <path
                d="m255 456.299c-10.828 0-21.415-3.762-29.814-10.595l-31.156-25.343c-41.324-33.625-75.264-76.834-98.148-124.952s-34.98-101.714-34.98-154.994v-50.449c0-10.513 7.67-19.54 17.841-20.998 17.851-2.557 35.68-6.497 52.992-11.711 2.166-.653 4.361-.983 6.528-.983 1.907 0 3.772.258 5.541.768 33.732 9.714 72.183 14.85 111.196 14.85 39.019 0 77.469-5.135 111.194-14.849 1.77-.51 3.633-.768 5.54-.768 2.169 0 4.365.33 6.529.982 17.308 5.212 35.135 9.152 52.989 11.711 10.173 1.458 17.845 10.487 17.845 21.001v50.435c0 53.281-12.096 106.881-34.981 155.002s-56.828 91.334-98.159 124.965l-31.141 25.33c-8.4 6.834-18.988 10.598-29.816 10.598z"
                fill="url(#SVGID_3_)" />
        </g>
        <path
            d="m489.191 253.417-123.882-123.881c-29.465-29.465-68.64-42.69-110.309-42.69s-79.844 16.227-109.308 45.691c-29.465 29.465-43.69 65.638-43.69 107.307s13.225 80.844 42.689 110.309l151.801 151.801c10.094-4.07 19.722-9.676 28.523-16.836l29.113-23.68c66.395-54.027 113.183-127.082 135.063-208.021z"
            fill="url(#SVGID_4_)" />
        <g>
            <circle cx="255" cy="239.845" fill="url(#SVGID_5_)" r="156" />
            <path
                d="m365.309 129.536c-29.465-29.465-68.64-45.691-110.309-45.691s-80.844 16.227-110.309 45.691-45.691 68.639-45.691 110.309 16.227 80.844 45.691 110.309c29.465 29.465 68.64 45.691 110.309 45.691s80.844-16.227 110.309-45.691c29.464-29.465 45.691-68.64 45.691-110.309s-16.227-80.845-45.691-110.309zm-179.44 110.309c0-16.476 1.581-32.378 4.448-47.147 16.196-3.662 34.636-6.057 54.777-6.654v107.603c-20.141-.597-38.581-2.992-54.777-6.654-2.867-14.77-4.448-30.672-4.448-47.148zm-16.747 41.235c-31.48-10.646-50.308-26.43-50.308-41.235s18.829-30.59 50.308-41.235c-2.02 13.273-3.066 27.116-3.066 41.235s1.046 27.962 3.066 41.235zm145.309-109.681c-15.605-2.927-32.3-4.686-49.524-5.175v-61.094c20.839 6.19 38.985 31.509 49.524 66.269zm-69.338-66.269v61.094c-17.224.488-33.918 2.247-49.524 5.175 10.539-34.76 28.685-60.079 49.524-66.269zm0 208.335v61.094c-20.839-6.19-38.985-31.509-49.524-66.269 15.606 2.927 32.3 4.687 49.524 5.175zm19.814 61.094v-61.094c17.224-.488 33.918-2.247 49.524-5.175-10.539 34.76-28.685 60.079-49.524 66.269zm0-80.913v-107.603c20.141.597 38.581 2.992 54.777 6.654 2.867 14.769 4.448 30.671 4.448 47.147s-1.581 32.378-4.448 47.147c-16.196 3.663-34.636 6.058-54.777 6.655zm75.971-95.037c31.48 10.646 50.308 26.43 50.308 41.235s-18.829 30.59-50.308 41.235c2.02-13.273 3.066-27.116 3.066-41.235s-1.046-27.962-3.066-41.235zm43.683-.731c-6.363-4.444-13.807-8.557-22.29-12.266-7.941-3.471-16.589-6.51-25.792-9.095-4.071-16.383-9.743-31.505-16.877-44.691-3.415-6.312-7.092-12.035-10.987-17.163 35.846 15.413 63.793 45.785 75.946 83.215zm-183.176-83.214c-3.895 5.128-7.572 10.851-10.987 17.163-7.134 13.186-12.806 28.307-16.877 44.691-9.203 2.585-17.852 5.624-25.792 9.095-8.483 3.708-15.928 7.822-22.29 12.266 12.153-37.431 40.1-67.803 75.946-83.215zm-75.946 167.147c6.363 4.444 13.807 8.557 22.29 12.266 7.941 3.471 16.589 6.51 25.792 9.095 4.071 16.383 9.743 31.505 16.877 44.691 3.415 6.312 7.092 12.035 10.987 17.163-35.846-15.413-63.793-45.785-75.946-83.215zm183.176 83.214c3.895-5.128 7.572-10.851 10.987-17.163 7.134-13.186 12.806-28.307 16.877-44.691 9.203-2.585 17.852-5.624 25.792-9.095 8.483-3.708 15.928-7.822 22.29-12.266-12.153 37.431-40.1 67.803-75.946 83.215z"
                fill="url(#SVGID_6_)" />
            <g>
                <path
                    d="m261.69 272.487c-6.505 0-11.778-5.273-11.778-11.778 0-3.124-1.241-6.12-3.45-8.329l-6.039-6.039c-9.936-9.936-23.412-15.518-37.464-15.518-9.747 0-17.649 7.902-17.649 17.649v2.053c0 14.052 5.582 27.528 15.518 37.464l.643.644c10.558 10.558 16.49 24.878 16.49 39.81v5.727c0 10.74 4.266 21.039 11.86 28.633 5.21 5.21 14.028 3.562 17.005-3.178l21.743-49.24c3.563-8.069 5.404-16.793 5.404-25.614 0-6.785-5.499-12.284-12.283-12.284z"
                    fill="url(#SVGID_7_)" />
                <path
                    d="m260.173 120.284h-26.143c-7.686 0-13.917-6.231-13.917-13.917 0-9.7-9.659-16.383-18.767-13.047-39.058 14.306-70.798 43.785-88.088 81.298-2.049 4.446-3.064 9.299-3.064 14.194 0 9.118 3.622 17.863 10.07 24.31l3.188 3.188c14.288 14.288 33.667 22.315 53.873 22.315 3.019 0 5.466-2.447 5.466-5.465 0-3.019-2.447-5.466-5.466-5.466h-16.802c-7.749 0-14.031-6.282-14.031-14.031 0-7.749 6.282-14.031 14.031-14.031h13.123c15.735 0 30.826-6.251 41.952-17.377l20.261-20.261c4.412-4.412 10.396-6.891 16.636-6.891 9.026 0 17.257-5.164 21.184-13.292 4.814-9.961-2.443-21.527-13.506-21.527z"
                    fill="url(#SVGID_8_)" />
                <path
                    d="m407.368 206.232c-2.154-9.81-10.926-16.748-20.969-16.748h-21.991-11.755c-19.98 0-36.177 16.197-36.177 36.177v4.401c0 17.549 14.226 31.775 31.775 31.775 8.923 0 16.156 7.233 16.156 16.156v42.189c0 10.994 14.275 15.374 20.385 6.234 12.697-18.994 21.334-40.936 24.672-64.579 1.009-7.182 1.536-14.53 1.536-21.993 0-11.541-1.254-22.786-3.632-33.612z"
                    fill="url(#SVGID_9_)" />
                <path
                    d="m347.652 169.449h46.598c-5.494-10.853-12.223-20.978-19.999-30.185h-26.599c-8.335 0-15.092 6.757-15.092 15.092s6.757 15.093 15.092 15.093z"
                    fill="url(#SVGID_10_)" />
            </g>
        </g>
    </g>
</svg>