<svg width="147" height="147" viewBox="0 0 147 147" fill="none" xmlns="http://www.w3.org/2000/svg">
<g clip-path="url(#clip0)">
<path d="M124.327 147H23.1883C15.2443 146.999 7.86679 142.886 3.6888 136.127C-0.488066 129.37 -0.868698 120.931 2.68237 113.824L53.247 12.6817C57.1283 4.91014 65.0701 0 73.7574 0C82.4448 0 90.3865 4.91014 94.2679 12.6817L144.832 113.824C148.384 120.931 148.003 129.37 143.826 136.127C139.649 142.886 132.271 146.999 124.327 147Z" fill="#FF7761"/>
<path d="M73.7575 36.7419C76.2898 36.7419 78.343 38.7951 78.343 41.3274V96.3533C78.343 98.8856 76.2898 100.939 73.7575 100.939C71.2252 100.939 69.172 98.8856 69.172 96.3533V41.3274C69.172 38.7951 71.2252 36.7419 73.7575 36.7419Z" fill="white"/>
<path d="M69.172 110.11H78.343V119.281H69.172V110.11Z" fill="white"/>
</g>
<defs>
<clipPath id="clip0">
<rect width="147" height="147" fill="white"/>
</clipPath>
</defs>
</svg>
