<svg width="20" height="22" viewBox="0 0 20 22" fill="none" xmlns="http://www.w3.org/2000/svg">
<path d="M17.4206 6.64588L17.4206 6.64587C16.9509 4.94514 15.9301 3.45109 14.5202 2.40135C13.1102 1.35159 11.3921 0.806437 9.63886 0.852722C7.88567 0.899007 6.19829 1.53406 4.84492 2.65675C3.49156 3.77943 2.54989 5.32525 2.16936 7.0484L0.952118 12.5603L0.952116 12.5603C0.812851 13.1911 0.816071 13.8454 0.961538 14.4748C1.10701 15.1042 1.39102 15.6927 1.79269 16.197C2.19436 16.7012 2.70343 17.1082 3.28238 17.3879C3.86134 17.6677 4.49534 17.8129 5.13758 17.8129H5.93841C6.1529 18.74 6.66631 19.5712 7.40039 20.1754C8.16612 20.8056 9.12484 21.15 10.1141 21.15C11.1034 21.15 12.0621 20.8056 12.8278 20.1754C13.5619 19.5712 14.0753 18.74 14.2898 17.8129H14.8623C15.5234 17.8129 16.1755 17.659 16.7678 17.3633C17.36 17.0676 17.8762 16.638 18.2761 16.1083C18.676 15.5786 18.9488 14.963 19.0733 14.3097C19.1977 13.6564 19.1705 12.9829 18.9937 12.3419L18.9633 12.2318H18.9625L17.4206 6.64588ZM16.7189 14.9182L16.7182 14.9191C16.5016 15.2085 16.221 15.4429 15.8988 15.6039C15.5766 15.7648 15.2216 15.8478 14.862 15.8464H14.8614H5.1376C5.13759 15.8464 5.13758 15.8464 5.13757 15.8464C4.78849 15.8463 4.44384 15.7673 4.12905 15.6152C3.81424 15.463 3.5373 15.2416 3.31871 14.9671C3.10012 14.6927 2.94547 14.3722 2.86626 14.0294C2.78704 13.6866 2.7853 13.3302 2.86115 12.9866L2.86116 12.9866L4.07756 7.47388C4.07757 7.47388 4.07757 7.47387 4.07757 7.47386C4.36363 6.1783 5.07154 5.0164 6.08852 4.17275C7.10549 3.32912 8.37318 2.85212 9.69006 2.81738C11.0069 2.78264 12.2977 3.19215 13.3571 3.98099C14.4165 4.76984 15.1838 5.8928 15.5369 7.17149C15.5369 7.17149 15.5369 7.17149 15.5369 7.1715L17.1091 12.8675L17.1093 12.868C17.2069 13.2168 17.2225 13.5838 17.1547 13.9397C17.0869 14.2956 16.9377 14.6306 16.7189 14.9182ZM10.1141 19.1793C9.63389 19.1772 9.16592 19.0258 8.77419 18.7456C8.44061 18.5071 8.17616 18.1851 8.00594 17.8129H12.2223C12.0521 18.1851 11.7876 18.5071 11.454 18.7456C11.0623 19.0258 10.5943 19.1772 10.1141 19.1793Z" fill="white" stroke="white" stroke-width="0.3"/>
</svg>
