<svg width="193" height="193" viewBox="0 0 193 193" fill="none" xmlns="http://www.w3.org/2000/svg">
<path d="M119.793 44.9224H69.8793V84.8534H119.793V44.9224Z" fill="#E4C05C"/>
<path d="M113.138 44.9224H106.483V33.2758C106.483 26.8536 101.258 21.6293 94.8362 21.6293C88.414 21.6293 83.1897 26.8536 83.1897 33.2758V44.9224H76.5345V33.2758C76.5345 23.1833 84.747 14.9741 94.8362 14.9741C104.925 14.9741 113.138 23.1833 113.138 33.2758V44.9224Z" fill="#556080"/>
<path d="M159.724 178.026H33.2759C14.9741 178.026 0 163.052 0 144.75C0 126.448 14.9741 111.474 33.2759 111.474H159.724C178.026 111.474 193 126.448 193 144.75C193 163.052 178.026 178.026 159.724 178.026Z" fill="#556080"/>
<path d="M48.4263 135.117L39.931 139.366V128.112C39.931 126.275 38.4436 124.784 36.6034 124.784C34.7633 124.784 33.2758 126.275 33.2758 128.112V139.366L24.7805 135.12C23.14 134.295 21.1401 134.967 20.3149 136.607C19.493 138.251 20.1585 140.251 21.8023 141.073L31.5455 145.945L23.9586 156.064C22.8538 157.535 23.1533 159.621 24.6241 160.722C25.2231 161.172 25.9219 161.388 26.6173 161.388C27.6322 161.388 28.6272 160.929 29.2827 160.057L36.6034 150.294L43.9241 160.057C44.5763 160.929 45.5746 161.388 46.5895 161.388C47.285 161.388 47.9838 161.172 48.5827 160.722C50.0535 159.621 50.353 157.535 49.2482 156.064L41.658 145.945L51.4012 141.073C53.045 140.251 53.7105 138.251 52.8886 136.607C52.0634 134.964 50.0702 134.295 48.4263 135.117Z" fill="#8697CB"/>
<path d="M88.3574 135.117L79.862 139.366V128.112C79.862 126.275 78.3746 124.784 76.5344 124.784C74.6943 124.784 73.2069 126.275 73.2069 128.112V139.366L64.7115 135.12C63.071 134.295 61.0712 134.967 60.2459 136.607C59.424 138.251 60.0895 140.251 61.7333 141.073L71.4765 145.945L63.8896 156.064C62.7849 157.535 63.0843 159.621 64.5551 160.722C65.1541 161.172 65.8529 161.388 66.5484 161.388C67.5633 161.388 68.5582 160.929 69.2138 160.057L76.5344 150.294L83.8551 160.057C84.5073 160.929 85.5056 161.388 86.5205 161.388C87.216 161.388 87.9148 161.172 88.5138 160.722C89.9846 159.621 90.284 157.535 89.1793 156.064L81.5891 145.945L91.3322 141.073C92.9761 140.251 93.6416 138.251 92.8197 136.607C91.9977 134.964 90.0012 134.295 88.3574 135.117Z" fill="#8697CB"/>
<path d="M128.288 135.117L119.793 139.366V128.112C119.793 126.275 118.306 124.784 116.465 124.784C114.625 124.784 113.138 126.275 113.138 128.112V139.366L104.643 135.12C102.995 134.295 101.002 134.967 100.177 136.607C99.355 138.251 100.021 140.251 101.664 141.073L111.408 145.945L103.821 156.064C102.716 157.535 103.015 159.621 104.486 160.722C105.085 161.172 105.784 161.388 106.479 161.388C107.494 161.388 108.489 160.929 109.145 160.057L116.465 150.294L123.786 160.057C124.438 160.929 125.437 161.388 126.452 161.388C127.147 161.388 127.846 161.172 128.445 160.722C129.916 159.621 130.215 157.535 129.11 156.064L121.52 145.945L131.263 141.073C132.907 140.251 133.573 138.251 132.751 136.607C131.925 134.964 129.932 134.295 128.288 135.117Z" fill="#8697CB"/>
<path d="M172.685 136.607C171.86 134.964 169.863 134.295 168.219 135.12L159.724 139.366V128.112C159.724 126.275 158.237 124.784 156.397 124.784C154.556 124.784 153.069 126.275 153.069 128.112V139.366L144.574 135.12C142.926 134.295 140.933 134.967 140.108 136.607C139.286 138.251 139.952 140.251 141.595 141.073L151.339 145.945L143.752 156.064C142.647 157.535 142.946 159.621 144.417 160.722C145.016 161.172 145.715 161.388 146.41 161.388C147.425 161.388 148.42 160.929 149.076 160.057L156.397 150.294L163.717 160.057C164.369 160.929 165.368 161.388 166.383 161.388C167.078 161.388 167.777 161.172 168.376 160.722C169.847 159.621 170.146 157.535 169.041 156.064L161.451 145.945L171.194 141.073C172.838 140.248 173.507 138.251 172.685 136.607Z" fill="#8697CB"/>
</svg>
