<svg width="150" height="150" viewBox="0 0 229 229" fill="none" xmlns="http://www.w3.org/2000/svg">
    <g clip-path="url(#clip0)">
    <path d="M114.5 229C177.737 229 229 177.737 229 114.5C229 51.2634 177.737 0 114.5 0C51.2634 0 0 51.2634 0 114.5C0 177.737 51.2634 229 114.5 229Z" fill="#EAB1B7"/>
<path d="M62.2834 195.467C80.9814 214.16 104.531 225.039 128.878 228.098C94.9884 232.364 59.5605 221.486 33.5363 195.467C-11.1764 150.75 -11.1764 78.2531 33.5363 33.536C59.56 7.5163 94.9884 -3.3621 128.878 0.904371C104.531 3.96411 80.9814 14.8425 62.2834 33.5355C17.5707 78.2531 17.5707 150.75 62.2834 195.467Z" fill="#E4989D"/>
<path d="M162.564 131.493L187.237 106.821C191.4 102.658 191.4 95.9079 187.237 91.7452L173.438 77.9466C169.275 73.7834 162.525 73.7834 158.362 77.9466L133.69 102.619L109.017 77.9466C104.854 73.7834 98.1045 73.7834 93.9418 77.9466L80.1432 91.7452C75.9801 95.9083 75.9801 102.658 80.1432 106.821L104.816 131.493L80.1432 156.166C75.9801 160.329 75.9801 167.079 80.1432 171.241L93.9418 185.04C98.105 189.203 104.855 189.203 109.017 185.04L133.69 160.367L158.362 185.04C162.526 189.203 169.275 189.203 173.438 185.04L187.237 171.241C191.4 167.078 191.4 160.328 187.237 156.166L162.564 131.493Z" fill="#DD636E"/>
<path d="M140.07 108.999L171.123 77.9466C171.488 77.5816 171.879 77.26 172.28 76.959C168.105 73.8273 162.16 74.1488 158.362 77.9466L133.69 102.619L140.07 108.999Z" fill="#DA4A54"/>
<path d="M106.702 185.041L92.9037 171.242C88.7406 167.079 88.7406 160.329 92.9037 156.167L117.576 131.494L92.9037 106.822C88.7406 102.659 88.7406 95.9089 92.9037 91.7462L106.702 77.9476C107.067 77.5826 107.458 77.261 107.86 76.96C103.684 73.8282 97.7396 74.1498 93.9418 77.9476L80.1432 91.7462C75.9801 95.9093 75.9801 102.659 80.1432 106.822L104.816 131.494L80.1432 156.167C75.9801 160.33 75.9801 167.08 80.1432 171.242L93.9418 185.041C97.7396 188.839 103.685 189.16 107.86 186.028C107.458 185.727 107.067 185.406 106.702 185.041Z" fill="#DA4A54"/>
<path d="M171.123 185.041L140.07 153.988L133.69 160.368L158.362 185.041C162.16 188.839 168.105 189.16 172.28 186.028C171.879 185.727 171.488 185.406 171.123 185.041Z" fill="#DA4A54"/>
<path d="M39.231 96.4007C37.6342 97.4464 37.1874 99.5879 38.2327 101.185C38.896 102.198 40.0003 102.748 41.1269 102.748C41.7764 102.748 42.433 102.565 43.0166 102.183C45.7208 100.413 48.2282 96.9925 47.1561 92.7032C46.4011 89.6828 44.0369 87.2989 40.9847 86.4808L21.216 81.1838C19.3751 80.6918 17.4778 81.7841 16.9835 83.6277C16.4898 85.4713 17.5838 87.3659 19.4274 87.8602L39.1957 93.1567C39.8232 93.3249 40.3044 93.7936 40.4507 94.3791C40.7007 95.3796 39.4783 96.2388 39.231 96.4007Z" fill="#DD636E"/>
<path d="M121.402 19.7245C123.301 19.7402 124.884 18.2373 124.917 16.3289C124.95 14.4204 123.43 12.8469 121.522 12.8138L110.832 12.6291C108.913 12.6103 107.35 14.1162 107.317 16.0247L106.879 41.3936C106.863 42.3101 107.211 43.1952 107.849 43.8545C108.486 44.5138 109.358 44.8926 110.274 44.9087L120.964 45.0934C120.984 45.0934 121.005 45.0939 121.025 45.0939C122.905 45.0939 124.446 43.5857 124.479 41.6978C124.512 39.7893 122.992 38.2158 121.083 38.1827L113.849 38.0575L113.948 32.2837L120.394 32.3951C120.415 32.3955 120.436 32.3955 120.456 32.3955C122.336 32.3955 123.877 30.8874 123.91 28.9994C123.942 27.091 122.422 25.5175 120.514 25.4844L114.068 25.373L114.168 19.5993L121.402 19.7245Z" fill="#DD636E"/>
<path d="M13.1246 110.503L13.4394 121.19C13.4944 123.063 15.0304 124.544 16.8919 124.544C16.9259 124.544 16.9608 124.543 16.9952 124.542L29.6761 124.168H29.6765L42.3569 123.795C44.2645 123.739 45.7655 122.147 45.7092 120.239L45.3948 109.553C45.3384 107.645 43.7636 106.133 41.839 106.2C39.9314 106.256 38.4304 107.849 38.4868 109.756L38.6996 116.988L32.9272 117.158L32.7376 110.714C32.6817 108.807 31.0899 107.305 29.1818 107.362C27.2738 107.418 25.7732 109.01 25.8296 110.918L26.0192 117.362L20.2468 117.532L20.0339 110.3C19.978 108.392 18.3817 106.881 16.4782 106.947C14.5692 107.003 13.0682 108.596 13.1246 110.503Z" fill="#DD636E"/>
<path d="M36.4687 54.4692C34.8594 53.4436 32.7228 53.9164 31.6968 55.5257L25.9503 64.5403C24.9243 66.1496 25.3975 68.2862 27.0068 69.3122L37.7027 76.1307C37.7031 76.1312 37.7036 76.1316 37.704 76.1321C37.7045 76.1325 37.7049 76.1325 37.7054 76.133L48.4017 82.9515C48.9612 83.308 49.6062 83.4932 50.2592 83.4932C50.5083 83.4932 50.7592 83.4663 51.0061 83.4113C51.9011 83.2132 52.6803 82.668 53.1731 81.8951L58.9201 72.88C59.9461 71.2708 59.4729 69.1342 57.8636 68.1081C56.2544 67.0826 54.1182 67.5553 53.0922 69.1646L49.2028 75.2657L44.3334 72.1617L47.7988 66.7252C48.8248 65.1159 48.3516 62.9793 46.7424 61.9533C45.1326 60.9273 42.9965 61.4005 41.9705 63.0098L38.5051 68.4463L33.6357 65.3418L37.5251 59.2407C38.5511 57.6314 38.0779 55.4952 36.4687 54.4692Z" fill="#DD636E"/>
<path d="M131.886 47.1697C132.083 47.2502 136.734 49.1408 138.604 49.8717C140.121 50.4647 141.662 50.7492 143.181 50.7492C148.812 50.7492 154.146 46.8446 156.851 40.2631C160.462 31.4779 157.875 23.5143 150.412 20.4461L143.903 17.7705C143.054 17.4212 142.102 17.4243 141.255 17.779C140.408 18.1332 139.737 18.8095 139.39 19.6589C139.39 19.6593 129.987 42.6667 129.987 42.6667C129.641 43.5156 129.647 44.4669 130.004 45.3113C130.36 46.1562 131.037 46.8249 131.886 47.1697ZM144.477 25.4791L147.784 26.8388C149.211 27.4256 153.623 29.9384 150.459 37.6354C148.148 43.2588 144.103 44.6011 141.119 43.4342C140.323 43.1233 138.971 42.5803 137.694 42.0651C138.794 39.3663 143.328 28.2884 144.477 25.4791Z" fill="#DD636E"/>
<path d="M59.8164 36.9244C61.3515 35.8501 63.1472 35.2655 65.0101 35.2342C66.9186 35.2024 68.4393 33.6294 68.408 31.7214C68.3762 29.8129 66.7857 28.3016 64.8951 28.3235C61.648 28.3776 58.5216 29.3938 55.8528 31.2625C52.2952 33.7533 49.9207 37.4808 49.1666 41.7576C48.4125 46.0343 49.3692 50.3491 51.86 53.9066C54.3509 57.4642 58.0784 59.8387 62.3551 60.5928C63.3091 60.761 64.2641 60.8442 65.2127 60.8442C68.5184 60.8442 71.7401 59.8347 74.5042 57.8994C77.445 55.8402 79.4089 53.0228 80.1831 49.7511C80.3348 49.1097 80.4412 48.4469 80.4989 47.7813C80.6644 45.88 79.2573 44.2045 77.356 44.0391C75.4546 43.8704 73.7792 45.2807 73.6137 47.182C73.5846 47.5148 73.5318 47.8439 73.4571 48.1602C73.0738 49.7788 72.0925 51.151 70.5396 52.2379C68.4947 53.67 66.0147 54.2211 63.5551 53.7863C61.0965 53.3529 58.9537 51.9874 57.5215 49.9421C56.0894 47.8967 55.5397 45.4162 55.9731 42.9571C56.406 40.4989 57.7711 38.3565 59.8164 36.9244Z" fill="#DD636E"/>
<path d="M95.3521 18.1513C94.7939 16.3265 92.8622 15.2991 91.0369 15.8569L77.5134 19.9914C75.6885 20.5491 74.6612 22.4813 75.2189 24.3066C75.6742 25.7951 77.0429 26.7527 78.5224 26.7527C78.857 26.7527 79.1973 26.7035 79.5341 26.6006L82.9638 25.5522L89.4402 46.7352C89.8955 48.2237 91.2641 49.1813 92.7437 49.1813C93.0782 49.1813 93.4186 49.1321 93.7554 49.0292C95.5802 48.4715 96.6076 46.5393 96.0499 44.714L89.5734 23.531L93.0577 22.4657C94.8829 21.9084 95.9103 19.9766 95.3521 18.1513Z" fill="#DD636E"/>
<path d="M22.0909 154.568C22.4129 155.429 23.0641 156.125 23.9005 156.504C24.3531 156.709 24.8397 156.812 25.3273 156.812C25.741 156.812 26.1552 156.738 26.5496 156.589C26.5501 156.589 50.5231 147.623 50.5231 147.623C52.3104 146.954 53.217 144.962 52.5479 143.175C51.8788 141.387 49.8866 140.48 48.0998 141.15L41.9436 143.455L47.5049 133.05C48.4048 131.367 47.7697 129.273 46.0862 128.373C44.4036 127.473 42.3091 128.109 41.4096 129.792L36.9454 138.144C35.9843 136.95 34.7784 135.964 33.3763 135.272C30.855 134.028 28.0565 133.871 25.4968 134.829C22.9366 135.788 20.9293 137.744 19.8451 140.337C18.7963 142.846 18.7466 145.636 19.7051 148.195L22.0909 154.568ZM26.2214 143.004C26.5622 142.189 27.1651 141.585 27.9196 141.303C28.2332 141.185 28.5637 141.127 28.8996 141.127C29.3719 141.127 29.8549 141.242 30.3179 141.47C31.1601 141.886 31.835 142.636 32.1691 143.53C32.4437 144.263 32.9008 145.47 33.3436 146.636C32.2107 147.066 31.046 147.508 30.3411 147.772C29.7395 147.997 28.5373 148.45 27.3471 148.899L26.1766 145.773C25.8434 144.88 25.8595 143.87 26.2214 143.004Z" fill="#DD636E"/>
    </g>
    <defs>
    <clipPath id="clip0">
        <rect width="229" height="229" fill="white"/>
    </clipPath>
</defs>
</svg>
